Coordinates
version=1
nRows=6
nColumns=63
inDegrees=yes

Units are S.I. units (second, meters, Newtons, ...)
If the header above contains a line with 'inDegrees', this indicates whether rotational values are in degrees (yes) or radians (no).

endheader
time	pelvis_tilt	pelvis_list	pelvis_rotation	pelvis_tx	pelvis_ty	pelvis_tz	hip_flexion_r	hip_adduction_r	hip_rotation_r	knee_angle_r	knee_angle_r_beta	ankle_angle_r	subtalar_angle_r	mtp_angle_r	hip_flexion_l	hip_adduction_l	hip_rotation_l	knee_angle_l	knee_angle_l_beta	ankle_angle_l	subtalar_angle_l	mtp_angle_l	L5_S1_Flex_Ext	L5_S1_Lat_Bending	L5_S1_axial_rotation	L4_L5_Flex_Ext	L4_L5_Lat_Bending	L4_L5_axial_rotation	L3_L4_Flex_Ext	L3_L4_Lat_Bending	L3_L4_axial_rotation	L2_L3_Flex_Ext	L2_L3_Lat_Bending	L2_L3_axial_rotation	L1_L2_Flex_Ext	L1_L2_Lat_Bending	L1_L2_axial_rotation	L1_T12_Flex_Ext	L1_T12_Lat_Bending	L1_T12_axial_rotation	Abs_r3	Abs_r2	Abs_r1	Abs_t1	Abs_t2	neck_flexion	neck_bending	neck_rotation	arm_flex_r	arm_add_r	arm_rot_r	elbow_flex_r	pro_sup_r	wrist_flex_r	wrist_dev_r	arm_flex_l	arm_add_l	arm_rot_l	elbow_flex_l	pro_sup_l	wrist_flex_l	wrist_dev_l
      0.00000000	      3.25018903	     -3.22921957	     97.97774175	      0.06340940	      0.49108583	      0.89508391	      5.17119059	      0.06210743	     -6.72547003	     10.88188943	      0.18992480	     27.02342443	     -1.08225672	      0.00000000	      3.55025875	     -2.36811049	      6.25815189	      3.09212331	      0.05396773	     29.31937122	      3.75589524	      0.00000000	      0.16526517	      0.37690710	     -1.30835798	      0.30691394	      0.50128645	     -1.39013035	      0.27151414	      0.91641193	     -1.39013035	      0.18888156	      0.91641193	     -1.14481323	      0.15346523	      0.76858897	     -1.06304086	      0.09443252	      0.58382910	     -0.98126849	      1.18047257	      4.26364854	     -7.27669458	      0.00000000	      0.00000000	     24.71263177	      0.54167630	      8.11235227	     18.89204796	    -14.64764229	     49.83296038	     65.20677904	     89.01327974	     28.30224981	     29.57608865	     15.80766039	     -8.32183590	     41.89536826	     65.32123966	     82.18676204	     14.76557387	     28.70725725
      0.01666667	      3.30528757	     -2.97592579	     98.23529485	      0.06377040	      0.49148732	      0.89547654	      4.53515554	      0.57918593	     -2.59707012	      9.70430041	      0.16937199	     25.19953616	     -7.27935315	      0.00000000	      3.36767827	     -2.48471018	      6.49123368	      3.42538766	      0.05978429	     28.65894613	      3.80840746	      0.00000000	      0.12938832	      0.38104352	     -1.14633891	      0.24028705	      0.50678789	     -1.21798509	      0.21257207	      0.92646922	     -1.21798509	      0.14787791	      0.92646922	     -1.00304655	      0.12015000	      0.77702395	     -0.93140036	      0.07393249	      0.59023642	     -0.85975418	      0.92420785	      4.31044054	     -6.37559312	      0.00000000	      0.00000000	     22.99401291	      1.00472321	      7.24094735	     17.70563869	    -14.86584950	     48.36853846	     64.99678292	     89.03388036	     29.35203133	     30.04846131	     16.99977374	     -8.01598855	     44.20455033	     64.16280079	     83.91120898	     15.23548690	     27.37333435
      0.03333333	      3.30508829	     -2.84155778	     98.57815432	      0.06375615	      0.49177014	      0.89581313	      4.09154224	      0.74707267	     -1.10945256	      8.88795113	      0.15512401	     24.33661048	     -9.86985863	      0.00000000	      3.33117404	     -2.50231687	      6.85051516	      3.63526893	      0.06344741	     28.28143201	      3.77856870	      0.00000000	      0.11345535	      0.37808183	     -1.06883209	      0.21069792	      0.50284883	     -1.13563410	      0.18639579	      0.91926816	     -1.13563410	      0.12966812	      0.91926816	     -0.93522808	      0.10535463	      0.77098447	     -0.86842608	      0.06482839	      0.58564876	     -0.80162407	      0.81040020	      4.27693728	     -5.94452346	      0.00000000	      0.00000000	     21.93583756	      1.25810436	      6.54540207	     16.60962015	    -14.93361073	     46.92195603	     64.91740026	     89.04763458	     29.07497979	     30.04458740	     17.86213877	     -7.83275569	     45.90322747	     63.33081805	     84.72517920	     15.34748447	     26.31436474
      0.05000000	      3.26283353	     -2.72683666	     98.69881850	      0.06382277	      0.49197554	      0.89590062	      3.70622581	      0.83915174	      0.34889042	      8.24513775	      0.14390480	     23.72891151	    -11.95440132	      0.00000000	      3.23713838	     -2.49012041	      6.67684795	      3.64638860	      0.06364149	     28.24707181	      4.15831606	      0.00000000	      0.09899358	      0.37460477	     -1.02806601	      0.18384098	      0.49822434	     -1.09232013	      0.16263655	      0.91081403	     -1.09232013	      0.11313976	      0.91081403	     -0.89955776	      0.09192544	      0.76389404	     -0.83530363	      0.05656493	      0.58026279	     -0.77104951	      0.70710125	      4.23760406	     -5.71779471	      0.00000000	      0.00000000	     21.45084342	      1.46462662	      6.49773585	     15.67656293	    -14.75853755	     45.41285689	     64.87318808	     89.04919781	     28.57471682	     30.07497384	     18.25048033	     -7.75194275	     46.69445287	     62.93203278	     85.23502052	     15.47191610	     25.82262524
      0.06666667	      3.16479812	     -2.70976141	     98.69301943	      0.06386970	      0.49204305	      0.89596003	      3.54053631	      0.76054262	      0.70202173	      7.91800585	      0.13819527	     23.79324793	    -12.18758341	      0.00000000	      3.20531103	     -2.39269538	      6.67142084	      3.52651631	      0.06154932	     28.32348334	      4.12823434	      0.00000000	      0.09699987	      0.36309971	     -0.99401669	      0.18013846	      0.48292262	     -1.05614273	      0.15936109	      0.88284064	     -1.05614273	      0.11086115	      0.88284064	     -0.86976460	      0.09007408	      0.74043294	     -0.80763856	      0.05542573	      0.56244146	     -0.74551252	      0.69286039	      4.10745658	     -5.52842261	      0.00000000	      0.00000000	     21.43019205	      1.38052726	      6.34013960	     14.77042103	    -14.54474428	     43.86812379	     65.02065183	     89.03993950	     27.34004021	     29.83414487	     18.45198939	     -7.75618468	     47.14693859	     62.80050101	     85.43377718	     15.32173830	     25.71671619
      0.08333333	      3.07572487	     -2.73346133	     98.90518521	      0.06364239	      0.49204362	      0.89599453	      3.41466451	      0.67019648	      0.83005068	      7.66461759	      0.13377281	     23.91078453	    -12.39105207	      0.00000000	      3.28866208	     -2.30315598	      6.29571030	      3.43856866	      0.06001434	     28.64086934	      4.89774848	      0.00000000	      0.10287256	      0.35168630	     -1.03061938	      0.19104462	      0.46774278	     -1.09503309	      0.16900932	      0.85509007	     -1.09503309	      0.11757304	      0.85509007	     -0.90179195	      0.09552746	      0.71715870	     -0.83737824	      0.05878138	      0.54476208	     -0.77296453	      0.73480838	      3.97834576	     -5.73199579	      0.00000000	      0.00000000	     21.78928437	      1.21138236	      6.33102225	     14.04903025	    -14.20215532	     42.43708369	     65.11500484	     89.03214762	     26.33439889	     29.53198193	     18.46921429	     -7.85122671	     47.24398728	     62.84415299	     85.36335239	     15.11920985	     25.73753755
